<svg xmlns="http://www.w3.org/2000/svg" viewBox="95.981 45.565 300 306.211" width="300" height="306.211"><g class="page-1"><path d="M349.282 762.078c14.234-54.845 55.192-267.91 68.655-278.014 13.908-10.441 28.662-152.436 40.349-195.862L33.904 176.66Z" style="fill:#1f234a;fill-rule:evenodd;fill-opacity:1" transform="matrix(.51888 0 -.00159 -.51888 78.4 434.343)"/><path d="m459.554 227.814 10.801-53.544 139.917 2.391L508.697 760.93H346.34l2.687-11.739 64.117-280.304 77.534 1.325-66.307-62.487 15.656-85.319Z" style="fill:#cc1414;fill-rule:evenodd;fill-opacity:1" transform="matrix(.51888 0 -.00159 -.51888 78.4 434.343)"/><g transform="matrix(.51888 0 -.00159 -.51888 78.4 434.343)"/><path d="m346.34 760.926 2.687-11.739 64.117-280.301 77.534 1.325-66.307-62.487 15.656-85.319 19.527-94.591 10.006-49.603-53.715 98.624.451.119-54.799 99.589-106.013-54.138 51.467 95.1-54.552 50.465 79.017-1.069 42.899 76.721-42.009 189.042Zm126.634-588.987-1.279 2.351Z" style="fill:#fff;fill-rule:evenodd;fill-opacity:1" transform="matrix(.51888 0 -.00159 -.51888 78.4 434.343)"/></g></svg>